<?xml version="1.0" standalone="no"?>
<!DOCTYPE svg PUBLIC "-//W3C//DTD SVG 20010904//EN"
 "http://www.w3.org/TR/2001/REC-SVG-20010904/DTD/svg10.dtd">
<svg version="1.0" xmlns="http://www.w3.org/2000/svg"
 width="106.000000pt" height="106.000000pt" viewBox="0 0 106.000000 106.000000"
 preserveAspectRatio="xMidYMid meet">
<metadata>
Created by potrace 1.14, written by Peter Selinger 2001-2017
</metadata>
<g transform="translate(0.000000,106.000000) scale(0.100000,-0.100000)"
fill="#000000" stroke="none">
<path d="M515 1040 c-21 -11 -55 -21 -75 -22 l-35 -1 34 -4 c23 -3 50 3 78 17
41 20 46 21 86 7 23 -8 60 -26 81 -41 25 -17 52 -26 77 -26 22 0 39 -5 39 -11
0 -8 5 -7 15 1 13 11 14 10 9 -3 -3 -8 -12 -18 -20 -21 -8 -3 -13 -2 -10 2 2
4 -18 7 -45 8 -37 0 -49 -3 -45 -13 4 -9 -5 -13 -29 -13 -29 0 -35 -4 -35 -21
0 -11 -4 -17 -10 -14 -6 4 -8 16 -4 27 4 14 2 18 -5 14 -6 -4 -11 -2 -11 4 0
6 -4 8 -10 5 -5 -3 -10 -1 -10 4 0 6 -6 11 -14 11 -8 0 -16 4 -18 9 -1 4 -12
5 -23 0 -19 -7 -19 -8 3 -8 12 -1 22 -5 22 -10 0 -5 12 -13 27 -18 l28 -10
-28 -17 c-15 -10 -27 -27 -27 -37 0 -12 -7 -19 -20 -19 -22 0 -28 25 -7 33 9
4 9 6 0 6 -7 1 -10 8 -7 16 4 8 10 12 15 9 5 -3 9 0 9 5 0 14 -6 14 -28 0 -15
-9 -26 -6 -59 14 -23 15 -54 29 -70 32 -15 4 -38 8 -50 11 -13 2 -23 10 -23
18 0 7 -7 19 -15 26 -11 9 -15 9 -15 1 0 -7 -9 -9 -25 -5 -19 5 -25 2 -25 -9
0 -9 -9 -19 -20 -22 -28 -9 -27 -39 1 -32 11 3 34 1 50 -5 25 -9 32 -7 43 7
12 17 15 15 46 -19 18 -20 38 -36 44 -36 6 0 -3 12 -19 27 -44 41 -9 43 63 3
71 -40 67 -36 51 -57 -9 -11 -10 -14 -1 -9 6 4 12 3 12 -3 0 -7 -55 -11 -147
-13 l-148 -3 -19 -40 c-10 -21 -25 -73 -34 -115 -17 -86 -7 -198 26 -273 17
-39 18 -45 4 -75 -9 -17 -19 -32 -24 -32 -4 0 -33 11 -64 25 -31 14 -60 25
-65 25 -17 0 5 -39 80 -141 11 -16 11 -22 1 -34 -11 -13 -8 -20 21 -45 50 -44
168 -99 246 -115 185 -40 407 8 533 113 30 26 33 31 21 46 -12 15 -11 20 8 44
38 48 81 116 81 129 0 9 -23 2 -70 -22 l-70 -35 -17 34 c-15 33 -15 39 5 108
12 40 21 87 21 103 -1 22 -3 24 -6 8 -3 -17 -57 -43 -301 -147 -163 -70 -301
-125 -307 -122 -18 7 -76 99 -68 107 5 4 112 51 238 104 127 53 275 116 330
140 l100 42 7 -26 c4 -14 5 0 3 32 -5 55 -27 128 -48 155 -7 8 -48 12 -143 12
-74 0 -134 3 -134 8 0 4 7 18 16 30 15 22 17 22 29 5 10 -14 16 -15 27 -5 12
10 19 8 33 -8 13 -14 29 -20 52 -18 18 1 33 3 33 4 0 1 -12 10 -27 20 -24 15
-26 15 -14 1 12 -15 11 -17 -6 -17 -19 0 -53 28 -53 43 0 21 99 -6 112 -30 3
-5 4 -3 2 4 -1 6 6 13 17 16 21 6 42 50 40 86 -2 45 -54 81 -67 47 -3 -8 -12
-12 -20 -9 -9 3 -14 -2 -14 -17 l0 -22 -32 21 c-90 58 -132 67 -183 41z m285
-22 c-1 -35 -49 -53 -56 -20 -1 7 0 8 3 2 3 -7 11 -3 20 9 16 23 33 28 33 9z
m16 -35 c-10 -10 -19 5 -10 18 6 11 8 11 12 0 2 -7 1 -15 -2 -18z m-9 -66 c3
-3 -6 -9 -20 -12 -25 -7 -67 8 -67 24 0 9 76 -2 87 -12z m-507 -97 c0 -5 -7
-10 -15 -10 -8 0 -15 -6 -15 -14 0 -9 7 -12 20 -9 25 7 25 -5 0 -37 -11 -14
-20 -28 -20 -33 0 -4 52 -7 115 -6 100 1 116 3 125 18 5 10 6 21 2 25 -3 4 -7
17 -7 29 0 17 -7 23 -30 25 -30 3 -31 2 -27 -35 3 -37 3 -38 -32 -40 -34 -3
-45 5 -29 20 3 4 12 2 20 -4 10 -9 13 -8 13 2 0 8 3 24 6 37 6 20 3 22 -32 22
l-39 0 2 -47 c2 -27 0 -42 -3 -36 -4 9 -11 10 -23 3 -28 -14 -33 0 -11 30 22
31 26 50 10 50 -5 0 -10 5 -10 10 0 6 77 10 210 10 116 0 210 -2 210 -5 0 -3
-12 -16 -27 -29 -21 -18 -25 -28 -19 -49 11 -45 86 -51 86 -7 0 14 -7 20 -22
20 -18 0 -20 -2 -8 -10 12 -8 13 -11 2 -22 -11 -11 -16 -9 -28 6 -17 24 -17
28 0 52 13 16 18 17 35 6 25 -15 27 -5 4 20 -15 17 -14 18 29 18 40 0 46 -3
60 -33 8 -17 19 -47 22 -65 l8 -32 -351 0 c-395 0 -367 -7 -330 81 20 47 23
49 60 49 22 0 39 -4 39 -10z m115 -30 c3 -6 -1 -13 -10 -16 -19 -8 -30 0 -20
15 8 14 22 14 30 1z m75 -5 c0 -8 -4 -15 -10 -15 -5 0 -10 7 -10 15 0 8 5 15
10 15 6 0 10 -7 10 -15z m0 -40 c0 -8 -4 -15 -10 -15 -5 0 -10 7 -10 15 0 8 5
15 10 15 6 0 10 -7 10 -15z m-170 -64 c0 -5 -9 -13 -21 -16 -11 -4 -29 -21
-40 -38 l-19 -32 0 48 0 47 40 0 c22 0 40 -4 40 -9z m170 -79 l0 -88 -36 -18
c-45 -21 -53 -15 -25 20 26 34 27 84 1 117 -32 41 -26 57 20 57 l40 0 0 -88z
m158 32 c-3 -52 -5 -57 -35 -69 l-33 -14 0 69 0 70 35 0 36 0 -3 -56z m172 38
c0 -15 -54 -52 -75 -52 -3 0 -5 16 -5 35 0 34 1 35 40 35 32 0 40 -4 40 -18z
m-486 -70 c-17 -26 -43 -27 -53 0 -6 16 -4 28 6 40 14 16 16 16 36 -3 17 -15
19 -23 11 -37z m72 43 c16 -12 16 -14 3 -15 -9 0 -22 7 -29 15 -16 19 0 19 26
0z m-16 -20 c7 -8 10 -20 8 -27 -3 -7 4 -21 14 -30 10 -11 18 -13 18 -6 0 6 3
9 6 5 3 -3 3 -15 -1 -28 -6 -17 -9 -19 -16 -8 -6 10 -9 11 -9 2 0 -7 -9 -13
-20 -13 -11 0 -20 -7 -20 -15 0 -15 -40 -22 -53 -9 -12 13 6 34 31 34 14 0 22
3 19 6 -3 4 -2 15 3 24 7 13 6 20 -5 24 -19 7 -20 56 -1 56 7 0 19 -7 26 -15z
m-86 -61 c19 -18 19 -24 6 -44 -9 -13 -12 -12 -25 4 -17 22 -20 56 -6 56 5 0
17 -7 25 -16z m-43 -29 c5 4 6 -1 3 -9 -4 -11 4 -22 25 -33 41 -24 40 -50 -4
-69 -19 -7 -37 -14 -40 -14 -3 0 -5 33 -4 73 0 39 3 66 6 59 2 -6 9 -10 14 -7z
m559 -134 c0 -77 -1 -79 -40 -122 l-39 -44 -1 106 0 106 38 16 c20 8 38 15 40
16 1 1 2 -34 2 -78z m-170 -111 l0 -119 -30 -16 c-16 -8 -31 -15 -35 -15 -3 0
-5 53 -5 118 l0 118 33 17 c17 8 33 16 35 16 1 1 2 -53 2 -119z m-160 -55 l0
-105 -40 20 -40 20 0 69 0 69 38 15 c20 9 38 16 40 16 1 1 2 -46 2 -104z m380
66 l12 -30 59 30 c32 16 59 26 59 21 0 -12 -30 -54 -69 -95 -35 -37 -35 -39
-17 -53 20 -14 20 -14 0 -29 -55 -42 -116 -76 -174 -96 -81 -27 -252 -37 -343
-19 -73 14 -189 65 -234 104 -30 25 -31 29 -17 43 14 14 13 19 -14 47 -38 41
-72 87 -72 97 0 4 26 -6 57 -22 61 -30 59 -31 88 15 8 13 16 8 49 -31 l39 -45
-31 7 c-34 7 -42 -4 -18 -25 8 -6 43 -22 78 -34 35 -13 93 -38 130 -55 75 -36
91 -35 188 14 25 13 63 29 85 35 44 13 105 50 105 64 0 4 -13 6 -29 4 l-29 -4
34 40 c19 22 34 44 34 48 0 17 17 -2 30 -31z m-550 -47 c0 -8 -5 -12 -10 -9
-6 4 -8 11 -5 16 9 14 15 11 15 -7z m15 -44 c3 -5 1 -10 -4 -10 -6 0 -11 5
-11 10 0 6 2 10 4 10 3 0 8 -4 11 -10z m395 -10 c-24 -15 -36 -11 -14 4 10 8
21 12 24 10 2 -3 -2 -9 -10 -14z"/>
<path d="M525 760 c0 -47 1 -50 26 -50 37 0 49 18 40 60 -6 30 -11 35 -36 38
-30 3 -30 2 -30 -48z m45 25 c0 -8 -4 -15 -10 -15 -5 0 -10 7 -10 15 0 8 5 15
10 15 6 0 10 -7 10 -15z m0 -40 c0 -8 -4 -15 -10 -15 -5 0 -10 7 -10 15 0 8 5
15 10 15 6 0 10 -7 10 -15z"/>
<path d="M606 773 c8 -56 12 -63 32 -63 28 0 42 20 42 62 0 27 -4 38 -14 38
-12 0 -13 -6 -4 -30 7 -23 7 -34 -2 -45 -18 -22 -30 -8 -30 36 0 27 -4 39 -14
39 -11 0 -13 -9 -10 -37z"/>
<path d="M210 160 c-15 -28 -8 -35 20 -20 12 6 24 9 28 6 3 -3 0 -6 -6 -6 -20
0 -13 -28 8 -35 48 -15 55 27 8 46 -18 7 -36 17 -39 22 -4 5 -12 0 -19 -13z
m80 -34 c0 -11 -19 -15 -25 -6 -3 5 1 10 9 10 9 0 16 -2 16 -4z"/>
<path d="M830 172 c0 -4 -27 -18 -60 -31 -52 -21 -58 -26 -49 -42 11 -22 19
-23 53 -8 14 7 23 16 19 22 -3 5 3 6 16 2 22 -7 30 10 9 18 -7 2 -10 7 -6 11
3 4 16 2 29 -4 19 -11 21 -10 16 5 -4 9 -7 21 -7 26 0 5 -4 9 -10 9 -5 0 -10
-3 -10 -8z m-55 -62 c3 -5 1 -10 -4 -10 -6 0 -11 5 -11 10 0 6 2 10 4 10 3 0
8 -4 11 -10z"/>
<path d="M312 118 c-7 -7 -12 -18 -12 -25 0 -18 47 -16 54 2 3 8 1 15 -4 15
-6 0 -10 -4 -10 -10 0 -5 -5 -10 -11 -10 -6 0 -8 9 -4 20 7 23 4 25 -13 8z"/>
<path d="M370 83 c1 -25 2 -26 14 -10 16 21 30 23 23 2 -7 -18 9 -30 17 -13 5
10 7 10 12 1 9 -20 24 -15 24 8 0 12 -4 18 -11 13 -6 -3 -14 -2 -18 3 -3 6
-18 13 -33 17 -26 6 -28 4 -28 -21z"/>
<path d="M673 90 c-6 -21 -25 -28 -20 -7 1 6 -7 12 -18 12 -13 0 -21 -8 -23
-22 -2 -13 1 -23 7 -23 6 0 11 4 11 8 0 5 15 7 33 6 41 -3 60 7 51 29 -9 23
-35 21 -41 -3z"/>
<path d="M490 64 c0 -21 3 -24 13 -15 10 8 17 7 25 -1 9 -9 12 -5 12 18 0 20
-3 25 -9 15 -6 -9 -11 -10 -15 -2 -13 20 -26 12 -26 -15z"/>
<path d="M550 73 c0 -18 6 -23 25 -23 18 0 25 5 25 20 0 11 -5 20 -11 20 -6 0
-9 -7 -5 -15 7 -20 -4 -19 -20 3 -12 16 -13 15 -14 -5z"/>
<path d="M524 1014 c-18 -14 -18 -15 4 -4 12 6 22 13 22 15 0 8 -5 6 -26 -11z"/>
<path d="M366 1004 c-9 -8 -16 -21 -16 -27 0 -8 3 -8 8 1 5 7 16 10 25 6 12
-4 15 0 14 15 -2 25 -10 26 -31 5z"/>
<path d="M589 1004 c19 -8 36 -12 39 -9 5 5 -43 25 -61 25 -7 -1 3 -7 22 -16z"/>
<path d="M650 980 c8 -5 20 -10 25 -10 6 0 3 5 -5 10 -8 5 -19 10 -25 10 -5 0
-3 -5 5 -10z"/>
<path d="M774 595 c-9 -23 3 -45 26 -45 11 0 20 -5 20 -11 0 -6 -7 -9 -15 -5
-9 3 -15 0 -15 -9 0 -13 -3 -13 -19 -3 -11 7 -17 16 -14 20 9 16 -19 39 -41
32 -29 -9 -28 -7 -11 -40 16 -32 22 -70 6 -46 -7 11 -9 11 -14 -2 -4 -9 -14
-16 -23 -16 -8 0 -14 6 -11 13 2 6 10 11 16 9 8 -1 9 7 5 25 -9 37 -9 37 -42
24 l-29 -12 18 -36 c10 -20 16 -40 13 -44 -3 -5 -3 -9 0 -9 6 0 151 65 176 79
22 12 19 45 -5 49 -27 5 -44 22 -22 22 9 0 17 5 17 10 0 16 -30 12 -36 -5z
m-34 -45 c0 -5 -4 -10 -10 -10 -5 0 -10 5 -10 10 0 6 5 10 10 10 6 0 10 -4 10
-10z m-74 -36 c-5 -14 -9 -15 -19 -5 -9 9 -9 14 3 21 18 11 24 6 16 -16z m89
-4 c3 -5 1 -10 -4 -10 -6 0 -11 5 -11 10 0 6 2 10 4 10 3 0 8 -4 11 -10z"/>
<path d="M902 590 c0 -14 2 -19 5 -12 2 6 2 18 0 25 -3 6 -5 1 -5 -13z"/>
<path d="M563 509 c-39 -15 -40 -69 -1 -90 14 -8 25 -7 42 4 22 15 30 57 11
57 -19 0 -25 -12 -14 -26 9 -11 7 -15 -6 -21 -12 -4 -23 0 -32 13 -19 26 -12
49 15 48 12 0 22 3 22 7 0 14 -14 17 -37 8z"/>
<path d="M490 475 c0 -3 8 -17 17 -32 l17 -25 -41 20 c-22 12 -43 19 -46 16
-3 -3 3 -20 14 -37 33 -56 15 -67 -28 -17 -36 43 -47 38 -40 -15 5 -36 4 -45
-9 -45 -8 0 -20 14 -25 30 -11 30 -31 38 -58 21 -11 -7 -11 -13 3 -32 9 -13
16 -31 16 -41 0 -19 25 -25 35 -9 3 5 19 12 35 16 26 6 29 10 24 31 -7 27 10
33 24 9 6 -13 14 -13 40 -4 28 10 30 13 17 26 -15 14 -20 33 -10 33 3 0 17 -7
31 -16 34 -23 40 -11 19 36 -15 34 -35 53 -35 35z m-160 -105 c0 -5 -4 -10
-10 -10 -5 0 -10 5 -10 10 0 6 5 10 10 10 6 0 10 -4 10 -10z m15 -40 c3 -5 1
-10 -4 -10 -6 0 -11 5 -11 10 0 6 2 10 4 10 3 0 8 -4 11 -10z"/>
</g>
</svg>
